<?xml version="1.0" standalone="no"?>
<!DOCTYPE svg PUBLIC "-//W3C//DTD SVG 20010904//EN"
 "http://www.w3.org/TR/2001/REC-SVG-20010904/DTD/svg10.dtd">
<svg version="1.0" xmlns="http://www.w3.org/2000/svg"
 width="274.000000pt" height="274.000000pt" viewBox="0 0 274.000000 274.000000"
 preserveAspectRatio="xMidYMid meet">

<g transform="translate(0.000000,274.000000) scale(0.100000,-0.100000)"
fill="#000000" stroke="none">
<path d="M1095 2675 c-538 -114 -941 -523 -1045 -1060 -29 -155 -28 -361 4
-515 110 -525 488 -913 1016 -1042 63 -16 129 -22 257 -26 149 -4 186 -1 285
18 337 67 618 240 818 505 181 240 270 504 270 807 0 233 -45 422 -148 622
-148 288 -417 525 -723 637 -223 82 -507 103 -734 54z m465 -120 c509 -83 912
-487 995 -998 39 -242 0 -509 -108 -722 -45 -90 -116 -199 -124 -191 -3 3 -8
31 -12 63 l-6 57 -242 90 c-134 50 -243 94 -243 99 0 4 50 7 110 7 l110 0 0
125 0 125 70 0 70 0 0 220 0 220 -70 0 -70 0 0 130 0 130 -320 0 -320 0 0 98
c0 86 3 101 20 117 45 41 10 125 -52 125 -66 0 -105 -83 -58 -125 17 -16 20
-31 20 -117 l0 -98 -320 0 -320 0 0 -130 0 -130 -70 0 -70 0 0 -220 0 -220 70
0 70 0 0 -125 0 -125 110 0 c61 0 110 -3 110 -7 0 -5 -109 -49 -243 -99 l-242
-90 -6 -57 c-4 -32 -9 -60 -11 -63 -9 -8 -59 66 -109 160 -347 659 -20 1468
688 1706 175 58 386 75 573 45z m-411 -973 c45 -33 64 -69 64 -115 0 -148
-186 -201 -263 -75 -75 123 85 276 199 190z m571 6 c102 -53 106 -188 8 -248
-40 -24 -88 -26 -135 -4 -85 41 -104 161 -36 226 54 52 98 59 163 26z"/>
</g>
</svg>
